<svg width="19" height="20" viewBox="0 0 19 20" fill="none" xmlns="http://www.w3.org/2000/svg">
<path d="M9.5 19C14.4705 19 18.5 14.9705 18.5 10C18.5 5.02943 14.4705 1 9.5 1C4.52943 1 0.5 5.02943 0.5 10C0.5 14.9705 4.52943 19 9.5 19Z" stroke="#1BD6FF" stroke-linecap="round" stroke-linejoin="round"/>
<path d="M5.89989 1.8999H6.79989C5.04489 7.1559 5.04489 12.8439 6.79989 18.0999H5.89989" stroke="#1BD6FF" stroke-linecap="round" stroke-linejoin="round"/>
<path d="M12.2 1.8999C13.955 7.1559 13.955 12.8439 12.2 18.0999" stroke="#1BD6FF" stroke-linecap="round" stroke-linejoin="round"/>
<path d="M1.3999 13.6002V12.7002C6.6559 14.4552 12.3439 14.4552 17.5999 12.7002V13.6002" stroke="#1BD6FF" stroke-linecap="round" stroke-linejoin="round"/>
<path d="M1.3999 7.30014C6.6559 5.54514 12.3439 5.54514 17.5999 7.30014" stroke="#1BD6FF" stroke-linecap="round" stroke-linejoin="round"/>
</svg>
