<svg width="120" height="40" viewBox="0 0 120 40" fill="none" xmlns="http://www.w3.org/2000/svg">
<g clip-path="url(#clip0_3193_6006)">
<path d="M1.779 26.3027C1.08871 25.975 0.600206 25.5456 0.313473 25.0101C0.0267402 24.4761 -0.062769 23.8996 0.0449455 23.2836C0.066185 23.1835 0.126869 23.0925 0.226998 23.0106C0.32561 22.9286 0.433325 22.8877 0.54559 22.8877H1.50744C1.74562 22.8877 1.88216 23.0136 1.91705 23.2654C1.91705 23.7934 2.14159 24.247 2.5952 24.6232C3.04882 25.001 3.75882 25.1891 4.72825 25.1891C5.77202 25.1891 6.59884 25.004 7.2072 24.6324C7.81556 24.2622 8.1918 23.7433 8.33593 23.0758C8.42847 22.648 8.37386 22.3021 8.1736 22.0381C7.97334 21.7741 7.64261 21.542 7.18293 21.3402C6.72324 21.1385 6.02234 20.8881 5.08174 20.5862C4.16085 20.3101 3.44478 20.0143 2.93351 19.6987C2.42225 19.3847 2.07332 18.9948 1.88368 18.529C1.69404 18.0633 1.67583 17.4792 1.82906 16.7737C1.98229 16.0683 2.2933 15.4842 2.7818 14.9441C3.2688 14.404 3.89233 13.9792 4.65088 13.6697C5.40943 13.3618 6.2666 13.207 7.22237 13.207C8.17815 13.207 9.00801 13.38 9.63912 13.7259C10.2687 14.0718 10.7087 14.5087 10.959 15.0367C11.2093 15.5646 11.2897 16.0926 11.2017 16.622C11.1805 16.7222 11.1259 16.8102 11.0409 16.886C10.956 16.9619 10.8498 16.9998 10.7239 16.9998H9.72408C9.4601 16.9998 9.32205 16.8799 9.31143 16.6418C9.35087 16.1138 9.1491 15.6769 8.70762 15.331C8.26614 14.9851 7.65626 14.8121 6.87647 14.8121C6.02082 14.8121 5.31234 14.976 4.75101 15.3022C4.18968 15.6298 3.83923 16.1138 3.70117 16.7555C3.60863 17.1834 3.64807 17.5353 3.82254 17.8114C3.99549 18.0876 4.29891 18.3303 4.73129 18.5381C5.16366 18.746 5.81146 18.9811 6.67318 19.2451C7.67902 19.5349 8.4573 19.8337 9.00801 20.1417C9.5572 20.4497 9.93344 20.8335 10.1367 21.2932C10.34 21.7529 10.3643 22.3339 10.2126 23.0379C9.95923 24.2076 9.30839 25.1254 8.25856 25.7929C7.20872 26.4605 5.91614 26.7927 4.38235 26.7927C3.33858 26.7927 2.4708 26.6289 1.78051 26.3027H1.779Z" fill="#F2F2F3"/>
<path d="M11.4542 26.4813C11.3904 26.3993 11.3722 26.2962 11.398 26.1703L14.0605 13.8499C14.0909 13.7118 14.1546 13.601 14.2547 13.5191C14.3533 13.4372 14.4671 13.3962 14.593 13.3962H19.3856C20.8071 13.3962 21.8509 13.7421 22.5199 14.4339C23.1874 15.1257 23.3801 16.1255 23.0979 17.4333C22.8158 18.741 22.1937 19.7377 21.2349 20.4235C20.2761 21.1092 19.0791 21.4521 17.6455 21.4521H14.3063L13.2868 26.1687C13.2595 26.2947 13.1928 26.3978 13.0881 26.4798C12.9819 26.5617 12.8666 26.6026 12.7407 26.6026H11.7409C11.615 26.6026 11.5194 26.5617 11.4557 26.4798L11.4542 26.4813ZM17.8927 19.8682C18.8106 19.8682 19.5509 19.6604 20.1123 19.2462C20.6736 18.8305 21.0392 18.2267 21.2107 17.4348C21.3821 16.6428 21.2804 16.036 20.9057 15.6142C20.531 15.1925 19.8786 14.9816 18.9487 14.9816H15.6838L14.6279 19.8682H17.8927Z" fill="#F2F2F3"/>
<path d="M23.9839 25.4996C23.2709 24.6379 23.0767 23.3393 23.4014 21.6037C23.4696 21.226 23.5789 20.6919 23.7291 20.0001C23.8792 19.3083 23.9991 18.7804 24.0901 18.4148C24.5073 16.7171 25.2765 15.4246 26.3992 14.537C27.5218 13.6495 28.8751 13.2065 30.4604 13.2065C32.0458 13.2065 33.1882 13.6495 33.927 14.537C34.6659 15.4246 34.8783 16.7156 34.5612 18.4148C34.4292 19.1445 34.3275 19.6724 34.2562 20.0001C34.1849 20.3278 34.0605 20.8497 33.8724 21.6037C33.4476 23.3393 32.6921 24.6379 31.6059 25.4996C30.5196 26.3614 29.1603 26.7922 27.5248 26.7922C25.8894 26.7922 24.697 26.3614 23.9839 25.4996ZM30.4453 24.2829C31.1674 23.6791 31.6878 22.7552 32.0064 21.5097C32.1945 20.7557 32.3159 20.252 32.3705 20.0001C32.4296 19.724 32.5267 19.2203 32.6587 18.4906C32.8772 17.2451 32.7528 16.3212 32.2855 15.7174C31.8183 15.1135 31.0946 14.8116 30.113 14.8116C29.1315 14.8116 28.2576 15.1135 27.5309 15.7174C26.8027 16.3212 26.2793 17.2451 25.9607 18.4906C25.8697 18.8562 25.7544 19.3584 25.6163 20.0001C25.4783 20.6419 25.3781 21.1319 25.3099 21.5097C25.0914 22.7552 25.2158 23.6791 25.6831 24.2829C26.1503 24.8867 26.8801 25.1886 27.8738 25.1886C28.8675 25.1886 29.7246 24.8867 30.4468 24.2829H30.4453Z" fill="#F2F2F3"/>
<path d="M35.1255 26.4813C35.0618 26.3993 35.0436 26.2962 35.0694 26.1703L37.7319 13.8499C37.7623 13.7118 37.826 13.601 37.9261 13.5191C38.0247 13.4372 38.1385 13.3962 38.2644 13.3962H42.8688C44.3146 13.3962 45.3736 13.7361 46.0441 14.4157C46.7147 15.0954 46.9119 16.0754 46.6343 17.3589C46.428 18.3147 46.0214 19.1006 45.4176 19.718C44.8123 20.334 44.0567 20.7618 43.1495 21.0015L44.9716 26.0201C44.9928 26.0959 44.9973 26.1642 44.9837 26.2279C44.9625 26.328 44.9018 26.416 44.8047 26.4919C44.7061 26.5677 44.6074 26.6057 44.5073 26.6057H43.6016C43.4135 26.6057 43.2739 26.5617 43.1874 26.4737C43.0994 26.3857 43.0297 26.2598 42.9766 26.0959L41.2759 21.3034H37.9747L36.9233 26.1718C36.896 26.2977 36.8292 26.4009 36.7246 26.4828C36.6184 26.5647 36.5031 26.6057 36.3772 26.6057H35.4153C35.2894 26.6057 35.1938 26.5647 35.1301 26.4828L35.1255 26.4813ZM41.4306 19.6983C43.3043 19.6983 44.4117 18.9124 44.7516 17.3392C45.0914 15.766 44.3237 14.9801 42.4501 14.9801H39.337L38.3175 19.6968H41.4306V19.6983Z" fill="#F2F2F3"/>
<path d="M49.6139 26.4812C49.5502 26.3993 49.532 26.2961 49.5578 26.1702L51.9548 15.0756H48.3319C48.206 15.0756 48.1105 15.0347 48.0467 14.9527C47.983 14.8708 47.9648 14.7677 47.9921 14.6417L48.1635 13.8498C48.1909 13.7239 48.2546 13.6177 48.3547 13.5297C48.4548 13.4417 48.5686 13.3977 48.6945 13.3977H57.7881C57.9261 13.3977 58.0278 13.4387 58.0915 13.5206C58.1552 13.6025 58.1734 13.7133 58.1431 13.8513L57.9716 14.6432C57.9443 14.7692 57.8776 14.8723 57.7729 14.9543C57.6667 15.0362 57.5514 15.0771 57.4255 15.0771H53.8224L51.4253 26.1717C51.398 26.2977 51.3313 26.4008 51.2266 26.4827C51.1204 26.5647 51.0051 26.6056 50.8792 26.6056H49.8976C49.7717 26.6056 49.6761 26.5647 49.6124 26.4827L49.6139 26.4812Z" fill="#F2F2F3"/>
<path d="M58.4222 26.3022C57.7319 25.9745 57.2434 25.5452 56.9567 25.0096C56.67 24.4756 56.5805 23.8991 56.6882 23.2832C56.7094 23.183 56.7701 23.092 56.8702 23.0101C56.9688 22.9282 57.0765 22.8872 57.1888 22.8872H58.1507C58.3888 22.8872 58.5254 23.0131 58.5603 23.265C58.5603 23.7929 58.7848 24.2465 59.2384 24.6228C59.692 25.0005 60.402 25.1886 61.3715 25.1886C62.4152 25.1886 63.2421 25.0036 63.8504 24.6319C64.4588 24.2617 64.835 23.7428 64.9791 23.0753C65.0717 22.6475 65.0171 22.3016 64.8168 22.0376C64.6166 21.7736 64.2858 21.5415 63.8261 21.3397C63.3665 21.138 62.6656 20.8876 61.725 20.5857C60.8041 20.3096 60.088 20.0138 59.5767 19.6982C59.0655 19.3842 58.7165 18.9943 58.5269 18.5285C58.3373 18.0628 58.3206 17.4787 58.4723 16.7733C58.6194 16.0936 58.9365 15.4837 59.425 14.9436C59.912 14.4035 60.5355 13.9787 61.2941 13.6693C62.0526 13.3613 62.9098 13.2065 63.8656 13.2065C64.8214 13.2065 65.6512 13.3795 66.2823 13.7254C66.9119 14.0713 67.3519 14.5082 67.6022 15.0362C67.8525 15.5641 67.933 16.0921 67.845 16.6215C67.8237 16.7217 67.7691 16.8097 67.6841 16.8855C67.5992 16.9614 67.493 16.9993 67.3671 16.9993H66.3673C66.1033 16.9993 65.9653 16.8795 65.9546 16.6413C65.9941 16.1133 65.7923 15.6764 65.3508 15.3305C64.9094 14.9846 64.2995 14.8116 63.5197 14.8116C62.664 14.8116 61.9556 14.9755 61.3942 15.3017C60.8329 15.6294 60.4824 16.1133 60.3444 16.7551C60.2518 17.1829 60.2913 17.5348 60.4658 17.811C60.6387 18.0871 60.9421 18.3298 61.3745 18.5377C61.8069 18.7455 62.4547 18.9806 63.3164 19.2446C64.3222 19.5344 65.1005 19.8333 65.6512 20.1412C66.2004 20.4492 66.5767 20.833 66.7799 21.2927C66.9832 21.7524 67.0075 22.3334 66.8558 23.0374C66.6024 24.2071 65.9516 25.1249 64.9018 25.7924C63.8519 26.46 62.5594 26.7922 61.0256 26.7922C59.9818 26.7922 59.114 26.6284 58.4237 26.3022H58.4222Z" fill="#F2F2F3"/>
<path d="M68.4063 26.4631C68.3319 26.369 68.3092 26.2583 68.3365 26.1323L70.9854 13.8681C71.0157 13.73 71.087 13.6162 71.2008 13.5282C71.3146 13.4402 71.4329 13.3962 71.5588 13.3962H77.3132C78.8986 13.3962 80.0076 13.7209 80.6402 14.3672C81.2744 15.015 81.461 15.9359 81.2031 17.1314C81.0665 17.761 80.7919 18.2919 80.3778 18.7258C79.9636 19.1597 79.5327 19.4783 79.0867 19.6786C79.5509 19.9183 79.9014 20.3006 80.1396 20.8301C80.3778 21.358 80.4263 21.9497 80.2852 22.6036C80.0137 23.8612 79.3871 24.8428 78.404 25.5467C77.4224 26.2507 76.1632 26.6026 74.6279 26.6026H68.7036C68.5777 26.6026 68.4776 26.5556 68.4048 26.4615L68.4063 26.4631ZM75.8037 18.6424C76.3074 18.6424 76.7185 18.5134 77.0386 18.2555C77.3587 17.9976 77.565 17.6548 77.6576 17.2269C77.7471 16.8112 77.6864 16.479 77.477 16.2272C77.2677 15.9753 76.9112 15.8494 76.4075 15.8494H73.9543L73.3505 18.6424H75.8037ZM74.7827 24.151C75.2985 24.151 75.7339 23.9993 76.0874 23.6989C76.4424 23.397 76.6654 23.0329 76.7579 22.6051C76.855 22.153 76.7913 21.7782 76.5668 21.4824C76.3407 21.1866 75.9706 21.0394 75.4547 21.0394H72.8317L72.1596 24.1525H74.7827V24.151Z" fill="#4DC8EF"/>
<path d="M82.3591 25.4905C81.5277 24.6228 81.2623 23.3454 81.5642 21.6599C81.6309 21.2957 81.7401 20.7541 81.8964 20.0366C82.0527 19.319 82.1786 18.7607 82.2696 18.395C82.6914 16.7353 83.5182 15.4549 84.7501 14.5552C85.982 13.6556 87.4657 13.2065 89.2013 13.2065C90.9368 13.2065 92.2294 13.6571 93.079 14.5552C93.9286 15.4549 94.1986 16.7338 93.8906 18.395C93.7587 19.1248 93.6524 19.6724 93.5736 20.0366C93.4947 20.4007 93.3672 20.9301 93.1852 21.6599C92.7574 23.3454 91.9412 24.6228 90.7351 25.4905C89.529 26.3583 88.0392 26.7922 86.2657 26.7922C84.4922 26.7922 83.189 26.3583 82.3576 25.4905H82.3591ZM88.6384 23.4531C89.136 23.0374 89.491 22.4032 89.7004 21.5476C89.8824 20.8179 90.0069 20.302 90.0721 20.0001C90.1434 19.6724 90.242 19.1581 90.3694 18.4527C90.5287 17.597 90.4468 16.9629 90.1206 16.5472C89.796 16.1315 89.2923 15.9252 88.6141 15.9252C87.936 15.9252 87.3458 16.133 86.8482 16.5472C86.3491 16.9629 85.9896 17.597 85.7665 18.4527C85.677 18.8047 85.5602 19.3205 85.4131 20.0001C85.2659 20.6798 85.1642 21.182 85.0975 21.5476C84.9503 22.4032 85.0338 23.0374 85.3463 23.4531C85.6588 23.8688 86.161 24.0751 86.8528 24.0751C87.5446 24.0751 88.1393 23.8672 88.6384 23.4531Z" fill="#4DC8EF"/>
<path d="M95.1847 25.4905C94.3533 24.6228 94.0878 23.3454 94.3897 21.6599C94.4565 21.2957 94.5657 20.7541 94.722 20.0366C94.8782 19.319 95.0042 18.7607 95.0952 18.395C95.5169 16.7353 96.3438 15.4549 97.5757 14.5552C98.8075 13.6556 100.291 13.2065 102.027 13.2065C103.762 13.2065 105.055 13.6571 105.905 14.5552C106.754 15.4549 107.024 16.7338 106.716 18.395C106.584 19.1248 106.478 19.6724 106.399 20.0366C106.32 20.4007 106.193 20.9301 106.011 21.6599C105.583 23.3454 104.767 24.6228 103.561 25.4905C102.355 26.3583 100.865 26.7922 99.0912 26.7922C97.3177 26.7922 96.0146 26.3583 95.1832 25.4905H95.1847ZM101.464 23.4531C101.962 23.0374 102.317 22.4032 102.526 21.5476C102.708 20.8179 102.832 20.302 102.898 20.0001C102.969 19.6724 103.068 19.1581 103.195 18.4527C103.354 17.597 103.272 16.9629 102.946 16.5472C102.622 16.1315 102.118 15.9252 101.44 15.9252C100.762 15.9252 100.171 16.133 99.6738 16.5472C99.1747 16.9629 98.8151 17.597 98.5921 18.4527C98.5026 18.8047 98.3858 19.3205 98.2386 20.0001C98.0915 20.6798 97.9898 21.182 97.9231 21.5476C97.7759 22.4032 97.8594 23.0374 98.1719 23.4531C98.4844 23.8688 98.9866 24.0751 99.6784 24.0751C100.37 24.0751 100.965 23.8672 101.464 23.4531Z" fill="#4DC8EF"/>
<path d="M106.736 26.4631C106.662 26.369 106.639 26.2583 106.666 26.1323L109.315 13.8681C109.345 13.73 109.417 13.6162 109.53 13.5282C109.644 13.4402 109.763 13.3962 109.889 13.3962H112.266C112.404 13.3962 112.509 13.4402 112.577 13.5282C112.645 13.6162 112.665 13.73 112.636 13.8681L111.732 18.0568L116.151 13.7558C116.354 13.5176 116.624 13.3978 116.964 13.3978H119.681C119.795 13.3978 119.88 13.4387 119.938 13.5206C119.995 13.6026 120.014 13.6936 119.992 13.7937C119.973 13.8817 119.938 13.9576 119.886 14.0198L114.127 19.718L117.642 25.9821C117.682 26.0322 117.691 26.1081 117.668 26.2082C117.645 26.3083 117.589 26.4009 117.495 26.4813C117.403 26.5632 117.3 26.6042 117.186 26.6042H114.375C114.073 26.6042 113.848 26.4782 113.701 26.2264L110.972 21.5659L109.986 26.1323C109.955 26.2704 109.887 26.3842 109.781 26.4722C109.675 26.5602 109.55 26.6042 109.412 26.6042H107.035C106.909 26.6042 106.809 26.5571 106.736 26.4631Z" fill="#4DC8EF"/>
</g>
<defs>
<clipPath id="clip0_3193_6006">
<rect width="120" height="13.5842" fill="white" transform="translate(0 13.208)"/>
</clipPath>
</defs>
</svg>
