<svg width="18" height="18" viewBox="0 0 18 18" fill="none" xmlns="http://www.w3.org/2000/svg">
<path d="M8.58223 17.1635C3.85154 17.1635 0 13.312 0 8.58126C0 3.85056 3.85154 -0.000976562 8.58223 -0.000976562C13.3129 -0.000976562 17.1645 3.85056 17.1645 8.58126C17.1645 13.312 13.3129 17.1635 8.58223 17.1635ZM8.58223 1.25496C4.53812 1.25496 1.25594 4.54551 1.25594 8.58126C1.25594 12.617 4.53812 15.9076 8.58223 15.9076C12.6264 15.9076 15.9085 12.617 15.9085 8.58126C15.9085 4.54551 12.6264 1.25496 8.58223 1.25496Z" fill="#E0E0E0"/>
<path d="M17.3742 18.0007C17.2151 18.0007 17.056 17.9421 16.9304 17.8165L15.2558 16.1419C15.013 15.8991 15.013 15.4972 15.2558 15.2544C15.4987 15.0116 15.9006 15.0116 16.1434 15.2544L17.818 16.929C18.0608 17.1718 18.0608 17.5737 17.818 17.8165C17.6924 17.9421 17.5333 18.0007 17.3742 18.0007Z" fill="#E0E0E0"/>
</svg>
