<svg width="14" height="14" viewBox="0 0 14 14" fill="none" xmlns="http://www.w3.org/2000/svg">
<path d="M3.71518 10.3918C3.71518 10.3918 3.75989 10.418 3.78224 10.4311C3.8046 10.4442 3.82695 10.4617 3.85378 10.4705C3.90295 10.488 3.96108 10.5011 4.01473 10.5011V13.5626C4.01473 13.8032 4.21591 14 4.4618 14H12.5091C12.755 14 12.9562 13.8032 12.9562 13.5626V10.5011C13.1887 10.5011 13.3809 10.3305 13.4033 10.1031L13.9845 3.82255C14.0784 2.84286 13.7431 1.86754 13.068 1.14152C12.3929 0.415499 11.4317 0 10.4302 0H6.54963C5.54819 0 4.58698 0.415499 3.9119 1.14152C3.31282 1.78882 2.99986 2.63293 2.99986 3.49891H2.23537C1.00145 3.49891 0 4.4786 0 5.68573V6.99782C0 7.12465 0.0536473 7.24274 0.152004 7.32584L3.7286 10.3874L3.71518 10.3918ZM4.9044 10.5011H6.24563V13.1253H4.9044V10.5011ZM9.82222 13.1253H7.13977V9.189C7.13977 8.46735 7.74332 7.87691 8.481 7.87691C9.21867 7.87691 9.82222 8.46735 9.82222 9.189V13.1253ZM12.0576 13.1253H10.7164V10.5011H12.0576V13.1253ZM4.56016 1.73196C5.0743 1.18088 5.7762 0.879101 6.5407 0.879101H10.4213C11.1858 0.879101 11.8877 1.18088 12.4018 1.73196C12.907 2.27429 13.1619 3.00906 13.0903 3.74383L12.5449 9.62637H10.7164V9.189C10.7164 7.98188 9.71492 7.00219 8.481 7.00219C7.24707 7.00219 6.24563 7.98188 6.24563 9.189V9.62637H4.45733L3.89401 3.94064C3.89401 3.94064 3.89401 3.94065 3.89401 3.93627L3.87614 3.74383C3.80461 3.00906 4.05943 2.27866 4.56462 1.73196H4.56016ZM0.880737 5.6901C0.880737 4.96845 1.48429 4.37801 2.22196 4.37801H3.03564L3.46482 9.01406L0.880737 6.801V5.68573V5.6901Z" fill="#0D6EFD"/>
<path d="M8.92808 9.62637H8.03393C7.78804 9.62637 7.58685 9.82319 7.58685 10.0637C7.58685 10.3043 7.78804 10.5011 8.03393 10.5011H8.92808C9.17397 10.5011 9.37515 10.3043 9.37515 10.0637C9.37515 9.82319 9.17397 9.62637 8.92808 9.62637Z" fill="#0D6EFD"/>
<path d="M8.92808 11.3758H8.03393C7.78804 11.3758 7.58685 11.5726 7.58685 11.8132C7.58685 12.0537 7.78804 12.2506 8.03393 12.2506H8.92808C9.17397 12.2506 9.37515 12.0537 9.37515 11.8132C9.37515 11.5726 9.17397 11.3758 8.92808 11.3758Z" fill="#0D6EFD"/>
</svg>
