<svg width="14" height="14" viewBox="0 0 14 14" fill="none" xmlns="http://www.w3.org/2000/svg">
<path d="M0.866309 13.7416C1.03257 13.908 1.2601 14 1.49199 14H1.50512C1.74139 14 1.95577 13.9036 2.1089 13.7416L3.53527 12.3139C3.53527 12.3139 3.5484 12.3095 3.55278 12.3051C3.55715 12.3008 3.55715 12.292 3.56152 12.2876L5.5698 10.2818C6.06859 10.7767 6.93491 10.7723 7.42932 10.2818L13.6161 4.0893C14.128 3.57691 14.128 2.74043 13.6161 2.22804L11.7609 0.371158C11.2665 -0.123719 10.3958 -0.123719 9.9014 0.371158L3.71466 6.56369C3.20275 7.07609 3.20275 7.91256 3.71466 8.42496H3.71904L0.266889 11.8803C0.0962511 12.0424 0 12.2613 0 12.4935C0 12.7299 0.0918806 12.9621 0.258144 13.1285L0.870689 13.7416H0.866309ZM4.64223 8.1184L4.32721 7.80307C4.15657 7.63228 4.15657 7.34761 4.32721 7.17681L10.5139 0.984277C10.5971 0.901068 10.7065 0.857276 10.8246 0.857276C10.9427 0.857276 11.0521 0.901068 11.1352 0.984277L12.9904 2.84116C13.161 3.01196 13.161 3.29662 12.9904 3.46742L6.80365 9.65996C6.63739 9.82637 6.34424 9.82637 6.17798 9.65996L5.8717 9.3534C5.70106 9.1826 5.42542 9.1826 5.25478 9.3534L3.23337 11.3723L2.62083 10.7592L4.64223 8.74028C4.72536 8.65707 4.76912 8.54758 4.76912 8.42933C4.76912 8.31109 4.72099 8.2016 4.64223 8.1184ZM2.0039 11.3723L2.61645 11.9854L1.48323 13.1153L0.870689 12.4978L2.0039 11.3679V11.3723Z" fill="#0D6EFD"/>
<path d="M12.2466 10.4965C11.2796 10.4965 10.4965 11.2804 10.4965 12.2482C10.4965 13.2161 11.2796 14 12.2466 14C13.2135 14 13.9967 13.2161 13.9967 12.2482C13.9967 11.2804 13.2135 10.4965 12.2466 10.4965ZM12.2466 13.1241C11.7653 13.1241 11.3715 12.73 11.3715 12.2482C11.3715 11.7665 11.7653 11.3723 12.2466 11.3723C12.7279 11.3723 13.1217 11.7665 13.1217 12.2482C13.1217 12.73 12.7279 13.1241 12.2466 13.1241Z" fill="#0D6EFD"/>
</svg>
