<svg width="14" height="14" viewBox="0 0 14 14" fill="none" xmlns="http://www.w3.org/2000/svg">
<path d="M11.5325 6.56249H9.17583C8.00333 6.56249 7.4375 6.04332 7.4375 4.96999V2.32166C7.4375 1.24832 8.00917 0.729156 9.17583 0.729156H11.5325C12.705 0.729156 13.2708 1.24832 13.2708 2.32166V4.96416C13.2708 6.04332 12.6992 6.56249 11.5325 6.56249ZM9.17583 1.60416C8.39417 1.60416 8.3125 1.82582 8.3125 2.32166V4.96416C8.3125 5.46582 8.39417 5.68166 9.17583 5.68166H11.5325C12.3142 5.68166 12.3958 5.45999 12.3958 4.96416V2.32166C12.3958 1.81999 12.3142 1.60416 11.5325 1.60416H9.17583Z" fill="#0D6EFD"/>
<path d="M11.5325 13.2708H9.17583C8.00333 13.2708 7.4375 12.6992 7.4375 11.5325V9.17583C7.4375 8.00333 8.00917 7.4375 9.17583 7.4375H11.5325C12.705 7.4375 13.2708 8.00917 13.2708 9.17583V11.5325C13.2708 12.6992 12.6992 13.2708 11.5325 13.2708ZM9.17583 8.3125C8.4875 8.3125 8.3125 8.4875 8.3125 9.17583V11.5325C8.3125 12.2208 8.4875 12.3958 9.17583 12.3958H11.5325C12.2208 12.3958 12.3958 12.2208 12.3958 11.5325V9.17583C12.3958 8.4875 12.2208 8.3125 11.5325 8.3125H9.17583Z" fill="#0D6EFD"/>
<path d="M4.82419 6.56249H2.46752C1.29502 6.56249 0.729187 6.04332 0.729187 4.96999V2.32166C0.729187 1.24832 1.30085 0.729156 2.46752 0.729156H4.82419C5.99669 0.729156 6.56252 1.24832 6.56252 2.32166V4.96416C6.56252 6.04332 5.99085 6.56249 4.82419 6.56249ZM2.46752 1.60416C1.68585 1.60416 1.60419 1.82582 1.60419 2.32166V4.96416C1.60419 5.46582 1.68585 5.68166 2.46752 5.68166H4.82419C5.60585 5.68166 5.68752 5.45999 5.68752 4.96416V2.32166C5.68752 1.81999 5.60585 1.60416 4.82419 1.60416H2.46752Z" fill="#0D6EFD"/>
<path d="M4.82419 13.2708H2.46752C1.29502 13.2708 0.729187 12.6992 0.729187 11.5325V9.17583C0.729187 8.00333 1.30085 7.4375 2.46752 7.4375H4.82419C5.99669 7.4375 6.56252 8.00917 6.56252 9.17583V11.5325C6.56252 12.6992 5.99085 13.2708 4.82419 13.2708ZM2.46752 8.3125C1.77919 8.3125 1.60419 8.4875 1.60419 9.17583V11.5325C1.60419 12.2208 1.77919 12.3958 2.46752 12.3958H4.82419C5.51252 12.3958 5.68752 12.2208 5.68752 11.5325V9.17583C5.68752 8.4875 5.51252 8.3125 4.82419 8.3125H2.46752Z" fill="#0D6EFD"/>
</svg>
