<svg width="14" height="14" viewBox="0 0 14 14" fill="none" xmlns="http://www.w3.org/2000/svg">
<path d="M0.211518 12.7529C0.312183 13.2517 0.714836 13.6587 1.21379 13.7637C1.95346 13.9212 2.7019 14 3.43719 14C6.21206 14 8.89502 12.9104 10.904 10.8975C12.3702 9.43154 13.3287 7.60678 13.7489 5.65512C13.7751 5.59385 13.7926 5.53259 13.7926 5.46695C14.0684 4.07978 14.0771 2.63573 13.7707 1.2048C13.6657 0.705947 13.2543 0.303362 12.7553 0.202716C11.3022 -0.0904712 9.83603 -0.0554638 8.43109 0.242099C8.4092 0.246475 8.38731 0.246475 8.36981 0.255227C6.41339 0.684067 4.5839 1.64677 3.11768 3.1127C1.65147 4.57864 0.688579 6.40777 0.259656 8.36381C0.250902 8.38569 0.250898 8.40757 0.242145 8.42945C-0.0554754 9.82975 -0.0904879 11.2957 0.202755 12.7485L0.211518 12.7529ZM1.39324 12.9104C1.23567 12.8754 1.1 12.7397 1.06936 12.5822C0.859275 11.5364 0.841773 10.4861 0.964322 9.45779L4.55326 13.046C3.51597 13.1686 2.44804 13.1379 1.39324 12.9104ZM10.6457 0.872232C11.2891 0.872232 11.9369 0.937871 12.5846 1.06477C12.7466 1.0954 12.8823 1.23106 12.9173 1.39297C13.1405 2.44756 13.1711 3.51091 13.0486 4.55238L9.45087 0.955374C9.84478 0.907239 10.2431 0.872232 10.6457 0.872232ZM3.73919 3.73846C5.04347 2.43444 6.66725 1.55488 8.40483 1.14354L12.8648 5.6026C12.4621 7.34422 11.5955 8.96769 10.2868 10.2805C8.9738 11.5889 7.35002 12.4597 5.60807 12.8623L1.15252 8.40757C1.56394 6.66595 2.43491 5.04249 3.73919 3.73846Z" fill="#0D6EFD"/>
</svg>
