<svg width="14" height="14" viewBox="0 0 14 14" fill="none" xmlns="http://www.w3.org/2000/svg">
<path d="M3.80335 9.48501C3.69252 9.48501 3.58168 9.44418 3.49418 9.35668C3.32502 9.18751 3.32502 8.90751 3.49418 8.73835L5.27335 6.95918C5.44252 6.79001 5.72252 6.79001 5.89169 6.95918C6.06085 7.12835 6.06085 7.40835 5.89169 7.57751L4.11252 9.35668C4.02502 9.43835 3.91418 9.48501 3.80335 9.48501Z" fill="#0D6EFD"/>
<path d="M5.59997 9.5025C5.48914 9.5025 5.37831 9.46167 5.29081 9.37417L3.51164 7.595C3.34247 7.42583 3.34247 7.14583 3.51164 6.97667C3.68081 6.8075 3.96081 6.8075 4.12997 6.97667L5.90914 8.75583C6.07831 8.925 6.07831 9.205 5.90914 9.37417C5.82164 9.46167 5.71081 9.5025 5.59997 9.5025Z" fill="#0D6EFD"/>
<path d="M7.89831 8.75001C7.57748 8.75001 7.30914 8.48751 7.30914 8.16668C7.30914 7.84584 7.56581 7.58334 7.88664 7.58334H7.89831C8.21914 7.58334 8.48164 7.84584 8.48164 8.16668C8.48164 8.48751 8.22498 8.75001 7.89831 8.75001Z" fill="#0D6EFD"/>
<path d="M10.1966 8.75001C9.87582 8.75001 9.60748 8.48751 9.60748 8.16668C9.60748 7.84584 9.86415 7.58334 10.185 7.58334H10.1966C10.5175 7.58334 10.78 7.84584 10.78 8.16668C10.78 8.48751 10.5175 8.75001 10.1966 8.75001Z" fill="#0D6EFD"/>
<path d="M9.04165 9.89915C8.72081 9.89915 8.45831 9.64249 8.45831 9.32165V9.30999C8.45831 8.98915 8.72081 8.72665 9.04165 8.72665C9.36248 8.72665 9.62498 8.98915 9.62498 9.30999C9.62498 9.63082 9.36831 9.89915 9.04165 9.89915Z" fill="#0D6EFD"/>
<path d="M9.04165 7.60084C8.72081 7.60084 8.45831 7.34418 8.45831 7.02334V7.01168C8.45831 6.69084 8.72081 6.42834 9.04165 6.42834C9.36248 6.42834 9.62498 6.69084 9.62498 7.01168C9.62498 7.33251 9.36831 7.60084 9.04165 7.60084Z" fill="#0D6EFD"/>
<path d="M8.75002 13.2708H5.25002C2.08252 13.2708 0.729187 11.9175 0.729187 8.75V7.58333C0.729187 4.41583 2.08252 3.0625 5.25002 3.0625H8.75002C11.9175 3.0625 13.2709 4.41583 13.2709 7.58333V8.75C13.2709 11.9175 11.9175 13.2708 8.75002 13.2708ZM5.25002 3.9375C2.56085 3.9375 1.60419 4.89417 1.60419 7.58333V8.75C1.60419 11.4392 2.56085 12.3958 5.25002 12.3958H8.75002C11.4392 12.3958 12.3959 11.4392 12.3959 8.75V7.58333C12.3959 4.89417 11.4392 3.9375 8.75002 3.9375H5.25002Z" fill="#0D6EFD"/>
<path d="M7.57749 3.93749H6.99416C6.43416 3.93749 5.97333 3.47666 5.97333 2.91666C5.97333 2.35666 6.42833 1.89582 6.98833 1.89582C7.08166 1.89582 7.14583 1.83166 7.15166 1.74999L7.15749 1.16082C7.16333 0.921656 7.35583 0.729156 7.595 0.729156H7.60083C7.83999 0.73499 8.03833 0.933323 8.0325 1.17249L8.02666 1.76166C8.02083 2.31582 7.55999 2.77082 7.00583 2.77082C6.91249 2.77082 6.85416 2.83499 6.85416 2.91666C6.85416 2.99832 6.91833 3.06249 6.99999 3.06249H7.58333C7.82249 3.06249 8.02083 3.26082 8.02083 3.49999C8.02083 3.73916 7.81666 3.93749 7.57749 3.93749Z" fill="#0D6EFD"/>
</svg>
