<svg width="14" height="14" viewBox="0 0 14 14" fill="none" xmlns="http://www.w3.org/2000/svg">
<path d="M3.34091 8.9075C3.24545 8.98188 3.18182 9.07812 3.18182 9.1875V10.9375C3.18182 11.1781 3.46818 11.375 3.81818 11.375H5.09091V13.5625C5.09091 13.8031 5.37727 14 5.72727 14H8.27273C8.62273 14 8.90909 13.8031 8.90909 13.5625V11.375H10.1818C10.5318 11.375 10.8182 11.1781 10.8182 10.9375V9.1875C10.8182 9.07812 10.7545 8.98188 10.6591 8.9075C12.6573 8.05875 14 6.545 14 4.8125C14 2.15687 10.8564 0 7 0C3.14364 0 0 2.15687 0 4.8125C0 6.545 1.34273 8.05875 3.34091 8.9075ZM7.63636 13.125H6.36364V11.375H7.63636V13.125ZM9.54545 9.625V10.5H4.45455V9.625H9.54545ZM7 0.875C10.1564 0.875 12.7273 2.6425 12.7273 4.8125C12.7273 6.9825 10.1564 8.75 7 8.75C3.84364 8.75 1.27273 6.9825 1.27273 4.8125C1.27273 2.6425 3.84364 0.875 7 0.875Z" fill="#0D6EFD"/>
<path d="M6.38909 2.625C6.73909 2.625 7.02546 2.42813 7.02546 2.1875C7.02546 1.94687 6.73909 1.75 6.38909 1.75H6.37639C6.02639 1.75 5.7464 1.94687 5.7464 2.1875C5.7464 2.42813 6.03909 2.625 6.38909 2.625Z" fill="#0D6EFD"/>
<path d="M4.47997 3.0625C4.82997 3.0625 5.11634 2.86563 5.11634 2.625C5.11634 2.38437 4.82997 2.1875 4.47997 2.1875H4.46727C4.11727 2.1875 3.83728 2.38437 3.83728 2.625C3.83728 2.86563 4.12997 3.0625 4.47997 3.0625Z" fill="#0D6EFD"/>
<path d="M3.84362 4.375C4.19362 4.375 4.47999 4.17813 4.47999 3.9375C4.47999 3.69687 4.19362 3.5 3.84362 3.5H3.83092C3.48092 3.5 3.20093 3.69687 3.20093 3.9375C3.20093 4.17813 3.49362 4.375 3.84362 4.375Z" fill="#0D6EFD"/>
<path d="M5.75274 3.9375C6.10274 3.9375 6.3891 3.74063 6.3891 3.5C6.3891 3.25937 6.10274 3.0625 5.75274 3.0625H5.74004C5.39004 3.0625 5.11005 3.25937 5.11005 3.5C5.11005 3.74063 5.40274 3.9375 5.75274 3.9375Z" fill="#252A32"/>
</svg>
