<svg width="14" height="14" viewBox="0 0 14 14" fill="none" xmlns="http://www.w3.org/2000/svg">
<path d="M0.0736436 4.17813L1.82383 6.80313C1.89821 6.9125 2.01635 6.9825 2.14324 6.99563C2.27887 7.00438 2.40139 6.96062 2.49765 6.86875L2.62454 6.74188V13.5625C2.62454 13.8031 2.82143 14 3.06208 14H10.9379C11.1786 14 11.3755 13.8031 11.3755 13.5625V6.74188L11.5023 6.86875C11.5942 6.96062 11.7255 7.00438 11.8568 6.99563C11.988 6.9825 12.1062 6.9125 12.1762 6.80313L13.9264 4.17813C14.0357 4.01188 14.0226 3.7975 13.8914 3.64875L10.8285 0.148748C10.7454 0.0524984 10.6273 0 10.5004 0H3.49963C3.37274 0 3.25461 0.0524984 3.17147 0.148748L0.108648 3.64875C-0.0226158 3.7975 -0.0357429 4.01625 0.0736436 4.17813ZM10.5004 13.125H3.49963V9.625H6.12491L5.33732 10.675C5.19293 10.8675 5.23231 11.1431 5.42483 11.2875C5.50359 11.3444 5.59548 11.375 5.68736 11.375C5.81863 11.375 5.94989 11.3138 6.0374 11.2L7 9.91812L7.9626 11.2C8.05011 11.3138 8.18137 11.375 8.31264 11.375C8.40452 11.375 8.49641 11.3488 8.57517 11.2875C8.76769 11.1431 8.80707 10.8675 8.66268 10.675L7.87509 9.625H10.5004V13.125ZM13.0119 3.9725L11.743 5.87562L11.2442 5.37687C11.1173 5.25 10.9335 5.215 10.7673 5.28063C10.6054 5.34625 10.496 5.50813 10.496 5.68313V8.74563H3.49526V8.03687L9.8178 0.870627H10.2991L13.0119 3.96813V3.9725ZM6.84686 2.9225L5.22356 0.875H8.65392L6.84686 2.9225ZM3.69653 0.875H4.10782L6.25617 3.59188L3.49526 6.72V5.69187C3.49526 5.51687 3.39024 5.355 3.22397 5.28937C3.06208 5.22375 2.87394 5.25875 2.74705 5.38562L2.24825 5.88437L0.979367 3.98125L3.69215 0.883752L3.69653 0.875Z" fill="#0D6EFD"/>
</svg>
