<svg width="14" height="14" viewBox="0 0 14 14" fill="none" xmlns="http://www.w3.org/2000/svg">
<path d="M4.59081 12.4133C4.12998 12.4133 3.69248 12.3025 3.30748 12.0808C2.39748 11.5558 1.89581 10.4883 1.89581 9.0825V4.92334C1.89581 3.51167 2.39748 2.45 3.30748 1.925C4.21748 1.4 5.38998 1.49917 6.61498 2.205L10.2141 4.28167C11.4333 4.9875 12.11 5.95584 12.11 7.00584C12.11 8.05584 11.4391 9.02417 10.2141 9.73L6.61498 11.8067C5.90915 12.2092 5.22081 12.4133 4.59081 12.4133ZM4.59081 2.46167C4.27581 2.46167 3.99581 2.53167 3.74498 2.6775C3.11498 3.03917 2.77081 3.83834 2.77081 4.92334V9.07667C2.77081 10.1617 3.11498 10.955 3.74498 11.3225C4.37498 11.69 5.23831 11.585 6.17748 11.0425L9.77665 8.96584C10.7158 8.42334 11.235 7.72917 11.235 7C11.235 6.27084 10.7158 5.57667 9.77665 5.03417L6.17748 2.9575C5.60581 2.63084 5.06915 2.46167 4.59081 2.46167Z" fill="#0D6EFD"/>
</svg>
