<svg width="14" height="14" viewBox="0 0 14 14" fill="none" xmlns="http://www.w3.org/2000/svg">
<path d="M13.8294 5.49234C13.1381 2.30635 10.2725 0 7 0C3.14125 0 0 3.14223 0 7.00219C0 8.77024 0.664995 10.4639 1.86812 11.7637L1.95563 11.8556L9.835 13.9168C10.0538 13.9737 10.2769 14 10.5 14C11.69 14 12.7137 13.2166 13.0287 12.0831L13.4487 10.2538C13.7812 10.0175 14 9.62801 14 9.19037V6.12691C14 5.90809 13.9431 5.7024 13.8469 5.52297L13.8294 5.49234ZM5.25 6.56455C5.25 6.08315 5.64375 5.68928 6.125 5.68928H12.6875C12.9281 5.68928 13.125 5.88621 13.125 6.12691V9.19037C13.125 9.43107 12.9281 9.62801 12.6875 9.62801H10.1588C9.33188 9.62801 8.53563 9.37418 7.86188 8.8884L5.6175 7.2779C5.39 7.1116 5.25 6.84464 5.25 6.56455ZM12.2062 11.7637C11.9962 12.7002 10.9813 13.3129 10.0538 13.0722L2.42375 11.0766C1.42188 9.95186 0.875 8.50766 0.875 7.00219C0.875 3.62363 3.6225 0.875273 7 0.875273C9.55937 0.875273 11.8212 2.48577 12.7094 4.81838C12.7006 4.81838 12.6962 4.81838 12.6875 4.81838H6.125C5.15812 4.81838 4.375 5.60175 4.375 6.56892C4.375 7.13348 4.64626 7.66302 5.10563 7.99124L7.34999 9.60175C8.17249 10.1926 9.14375 10.5033 10.1544 10.5033H12.4906L12.2019 11.7637H12.2062Z" fill="#0D6EFD"/>
<path d="M6.58 7.0022C6.82063 7.0022 7.0175 6.80526 7.0175 6.56456C7.0175 6.32386 6.82063 6.12692 6.58 6.12692H6.57124C6.33062 6.12692 6.13812 6.32386 6.13812 6.56456C6.13812 6.80526 6.33938 7.0022 6.58 7.0022Z" fill="#0D6EFD"/>
</svg>
