<svg width="14" height="14" viewBox="0 0 14 14" fill="none" xmlns="http://www.w3.org/2000/svg">
<path d="M8.575 12.6875H5.425C2.54333 12.6875 1.3125 11.4567 1.3125 8.575V5.425C1.3125 2.54333 2.54333 1.3125 5.425 1.3125H8.575C11.4567 1.3125 12.6875 2.54333 12.6875 5.425V8.575C12.6875 11.4567 11.4567 12.6875 8.575 12.6875ZM5.425 2.1875C3.03333 2.1875 2.1875 3.03333 2.1875 5.425V8.575C2.1875 10.9667 3.03333 11.8125 5.425 11.8125H8.575C10.9667 11.8125 11.8125 10.9667 11.8125 8.575V5.425C11.8125 3.03333 10.9667 2.1875 8.575 2.1875H5.425Z" fill="#0D6EFD"/>
</svg>
