<svg width="14" height="14" viewBox="0 0 14 14" fill="none" xmlns="http://www.w3.org/2000/svg">
<path d="M7 0C3.14125 0 0 3.14125 0 7C0 10.8587 3.14125 14 7 14C10.8587 14 14 10.8587 14 7C14 3.14125 10.8587 0 7 0ZM7 13.125C3.6225 13.125 0.875 10.3775 0.875 7C0.875 3.6225 3.6225 0.875 7 0.875C9.065 0.875 10.8894 1.90313 11.9963 3.47375L11.8869 3.52188C10.7669 4.02063 9.48063 3.93313 8.43938 3.28562L8.32562 3.22C7.665 2.83063 6.90813 2.625 6.12938 2.625C3.71875 2.625 1.75438 4.58938 1.75438 7C1.75438 9.41063 3.71875 11.375 6.12938 11.375C6.90813 11.375 7.665 11.1694 8.32562 10.78L8.44374 10.7144C9.48499 10.0669 10.7756 9.97937 11.8956 10.4825L12.005 10.5306C10.8938 12.0969 9.06937 13.1294 7.00875 13.1294L7 13.125ZM12.4556 9.77375L12.2456 9.68187C10.9025 9.07812 9.35813 9.16562 8.085 9.905L7.96251 9.975C7.41563 10.3206 6.78125 10.5044 6.12062 10.5044C4.19125 10.5044 2.62062 8.93375 2.62062 7.00437C2.62062 5.075 4.19125 3.50437 6.12062 3.50437C6.77687 3.50437 7.41563 3.68813 7.96251 4.03375L8.07625 4.10375H8.08063C9.34938 4.84312 10.8938 4.93062 12.2369 4.33125L12.4469 4.23937C12.8713 5.075 13.1163 6.01125 13.1163 7.01313C13.1163 8.015 12.8713 8.95125 12.4469 9.78688L12.4556 9.77375Z" fill="#0D6EFD"/>
</svg>
