<svg width="14" height="14" viewBox="0 0 14 14" fill="none" xmlns="http://www.w3.org/2000/svg">
<path d="M7 0C5.13188 0 3.37313 0.72625 2.05188 2.05188C0.730626 3.37313 0 5.13188 0 7C0 8.86812 0.726251 10.6269 2.05188 11.9481C3.37313 13.2694 5.13188 14 7 14C8.86812 14 10.6269 13.2737 11.9481 11.9481C13.2694 10.6269 14 8.86812 14 7C14 5.13188 13.2737 3.37313 11.9481 2.05188C10.6269 0.730625 8.86812 0 7 0ZM11.6244 11.0075L7.61688 7L9.1875 5.42937C10.3031 6.43563 11.6375 7.12687 13.1031 7.44187C13.0069 8.7675 12.495 10.0056 11.6244 11.0075ZM0.896876 7.45937C2.12188 7.75687 3.24625 8.34313 4.19125 9.19188L2.37563 11.0075C1.50938 10.01 0.993126 8.77625 0.896876 7.45937ZM2.37563 2.99688L6.38312 7.00437L4.8125 8.575C3.69688 7.56875 2.3625 6.8775 0.896876 6.5625C0.993126 5.23688 1.505 3.99875 2.37563 2.99688ZM9.19188 4.19563C8.34313 3.25063 7.75688 2.12625 7.45938 0.90125C8.77625 0.9975 10.01 1.50937 11.0075 2.38L9.19188 4.19563ZM8.575 4.8125L7.00438 6.38313L2.99687 2.37562C3.99875 1.505 5.23688 0.993125 6.5625 0.896875C6.8775 2.3625 7.56875 3.69688 8.575 4.8125ZM4.81688 9.80875C5.66563 10.7537 6.25188 11.8781 6.54938 13.1031C5.2325 13.0069 3.99875 12.495 3.00125 11.6244L4.81688 9.80875ZM5.43375 9.19188L7.00438 7.62125L11.0119 11.6287C10.01 12.4994 8.77187 13.0112 7.44625 13.1075C7.13125 11.6419 6.44 10.3075 5.43375 9.19188ZM9.81313 4.8125L11.6288 2.99688C12.495 3.99437 13.0112 5.22813 13.1075 6.545C11.8825 6.2475 10.7581 5.66125 9.81313 4.8125Z" fill="#0D6EFD"/>
</svg>
