<svg width="14" height="14" viewBox="0 0 14 14" fill="none" xmlns="http://www.w3.org/2000/svg">
<path d="M0.0131327 7.39375C0.0131327 7.39375 0.0131327 7.40688 0.0131327 7.41563C0.223264 10.9375 3.03814 13.7594 6.55784 13.9781C6.56222 13.9781 6.57098 13.9781 6.57536 13.9781C6.58411 13.9781 6.59287 13.9781 6.60162 13.9781C6.73296 13.9869 6.85991 14 6.99562 14C10.8568 14 14 10.8587 14 7C14 6.86875 13.9869 6.74188 13.9825 6.615C13.9825 6.615 13.9825 6.615 13.9825 6.61062C13.9825 6.60187 13.9825 6.5975 13.9825 6.58875C13.7724 3.05375 10.9356 0.223125 7.39838 0.021875C7.26704 0.013125 7.14009 0 7.00438 0C3.14322 0 0 3.14125 0 7C0 7.13125 0.0131236 7.25812 0.0175013 7.385C0.0175013 7.385 0.0175013 7.385 0.0175013 7.38937L0.0131327 7.39375ZM7 13.125C7 12.565 7.08317 12.0225 7.22764 11.5062L7.65666 11.7556C7.7267 11.795 7.80113 11.8125 7.87555 11.8125C8.02439 11.8125 8.17323 11.7338 8.25641 11.5938C8.37899 11.3837 8.30457 11.1169 8.09443 10.9944L7.52095 10.6619C7.77048 10.0975 8.10319 9.58125 8.50594 9.12187L8.87805 9.49375C8.96561 9.58125 9.07505 9.62062 9.18887 9.62062C9.30269 9.62062 9.41213 9.57688 9.49969 9.49375C9.67042 9.32312 9.67042 9.0475 9.49969 8.87687L9.13196 8.50938C9.60475 8.1025 10.1345 7.76562 10.7123 7.51188L10.9925 8.0675C11.0713 8.22062 11.2245 8.30812 11.3821 8.30812C11.4478 8.30812 11.5134 8.295 11.5791 8.26C11.7936 8.15062 11.8812 7.88813 11.7761 7.67375L11.5441 7.21C12.0519 7.07 12.586 7.00437 13.1332 7.00437C13.1288 10.3775 10.3796 13.1163 7.00438 13.1163L7 13.125ZM13.0588 6.12937C12.3934 6.13812 11.7455 6.23875 11.137 6.41813L10.8918 5.92812C10.7824 5.70937 10.5197 5.62625 10.3052 5.73125C10.0907 5.84063 10.0031 6.10312 10.1082 6.3175L10.3096 6.72C9.64415 7.01312 9.04002 7.40688 8.50156 7.88375L8.182 7.56438C8.01126 7.39375 7.73546 7.39375 7.56473 7.56438C7.394 7.735 7.394 8.01062 7.56473 8.18125L7.8843 8.50063C7.42901 9.0125 7.05253 9.59438 6.7636 10.2244L6.34772 9.98375C6.14197 9.86562 5.87055 9.93563 5.74797 10.1456C5.6254 10.3556 5.69982 10.6225 5.90995 10.745L6.44403 11.0513C6.24703 11.6856 6.14196 12.3594 6.1332 13.055C3.45403 12.67 1.33083 10.5481 0.945593 7.87063C1.7511 7.86188 2.52157 7.71313 3.23952 7.455L3.54596 8.07188C3.62476 8.225 3.77798 8.3125 3.93558 8.3125C4.00125 8.3125 4.06692 8.29937 4.13259 8.26437C4.3471 8.155 4.43464 7.8925 4.32958 7.67812L4.04503 7.10938C4.57473 6.83813 5.06066 6.50562 5.50281 6.11625L5.82239 6.43563C5.90994 6.52313 6.01938 6.5625 6.1332 6.5625C6.24702 6.5625 6.35648 6.51875 6.44403 6.43563C6.61476 6.265 6.61476 5.98938 6.44403 5.81875L6.12445 5.49937C6.51407 5.0575 6.84677 4.57188 7.11819 4.0425L7.68731 4.32688C7.7486 4.3575 7.81863 4.375 7.8843 4.375C8.04628 4.375 8.1995 4.2875 8.27392 4.13438C8.38337 3.92 8.29581 3.6575 8.07692 3.54812L7.45966 3.24187C7.71794 2.52437 7.86679 1.75438 7.87555 0.949375C10.5547 1.33438 12.6779 3.45625 13.0632 6.13375L13.0588 6.12937ZM7 0.875C7 1.56625 6.8818 2.22688 6.66729 2.84375L6.31707 2.66875C6.10256 2.56375 5.8399 2.64688 5.73046 2.86563C5.62102 3.08 5.70856 3.3425 5.92745 3.45187L6.32582 3.64875C6.09818 4.09063 5.82239 4.50187 5.49844 4.87812L5.12195 4.50187C4.95121 4.33125 4.67542 4.33125 4.50468 4.50187C4.33395 4.6725 4.33395 4.94812 4.50468 5.11875L4.88118 5.495C4.50907 5.81875 4.09756 6.09875 3.65103 6.32188L3.45403 5.92375C3.34459 5.705 3.08192 5.62188 2.86741 5.72688C2.6529 5.83625 2.56534 6.09875 2.67041 6.31313L2.84553 6.66313C2.22389 6.87312 1.56285 6.99563 0.875548 6.99563C0.875548 3.61812 3.62477 0.870625 7.00438 0.870625L7 0.875Z" fill="#0D6EFD"/>
</svg>
