<svg width="14" height="14" viewBox="0 0 14 14" fill="none" xmlns="http://www.w3.org/2000/svg">
<path d="M11.3111 9.45426C11.0487 9.19638 10.9918 8.78114 11.1624 8.43147C11.9103 6.84921 11.8885 4.98283 11.0968 3.4399C10.9874 3.22573 10.7206 3.13831 10.5063 3.25196C10.292 3.36123 10.2045 3.62348 10.3138 3.84203C10.3576 3.92944 10.3926 4.02123 10.4319 4.10865L4.10717 10.429C3.56917 10.1973 3.06179 9.87387 2.63314 9.44552C1.5484 8.35279 0.870417 6.65688 0.870417 5.02217C0.870417 4.15673 1.06725 2.92851 1.99453 1.99751C2.81684 1.16703 4.05905 0.782394 5.49809 0.900409C5.73866 0.922263 5.95296 0.743058 5.97046 0.502658C5.99233 0.262259 5.81301 0.052455 5.57244 0.0306005C3.87534 -0.113639 2.3838 0.367162 1.37779 1.38121C0.489869 2.2685 0 3.56229 0 5.02217C0 6.87543 0.774187 8.80737 2.0164 10.0618C2.58939 10.6344 3.26736 11.0496 3.99344 11.325C4.02406 11.3425 4.05904 11.3556 4.09403 11.3687C5.48058 11.867 7.04646 11.8233 8.43739 11.1633C8.7873 10.9928 9.19847 11.054 9.46091 11.3163L11.7529 13.6154C11.9978 13.8645 12.3302 14 12.6845 14C13.0388 14 13.3669 13.8645 13.6162 13.6154C14.1279 13.104 14.1279 12.2691 13.6162 11.7577L11.3155 9.46738L11.3111 9.45426ZM12.9951 12.9859C12.8288 13.152 12.5358 13.152 12.374 12.9859L10.082 10.6869C9.5615 10.1623 8.74795 10.0356 8.06123 10.3634C7.09896 10.818 6.04482 10.9229 5.04756 10.7175L10.7293 5.03965C10.9305 6.04496 10.8168 7.10709 10.3707 8.0512C10.0383 8.73743 10.1695 9.55042 10.6944 10.0706L12.9951 12.3609C13.1613 12.5314 13.1613 12.8155 12.9951 12.9859Z" fill="#0D6EFD"/>
</svg>
