<svg width="14" height="14" viewBox="0 0 14 14" fill="none" xmlns="http://www.w3.org/2000/svg">
<path d="M12.6875 0.00437457C12.2719 0.00437457 11.8738 0.20556 11.6288 0.54233L4.32688 10.5011H1.75C0.783125 10.5011 0 11.284 0 12.2505C0 13.2171 0.783125 14 1.75 14H5.22813C5.83188 14 6.38313 13.6982 6.70688 13.1865L13.7944 2.01625C13.9256 1.80631 14 1.56139 14 1.31209C14 0.590444 13.4094 0 12.6875 0V0.00437457ZM7.52063 7.62324L8.64938 8.49797L8.00187 9.51703L6.76811 8.65105L7.52063 7.62324ZM0.875 12.2505C0.875 11.7694 1.26875 11.3758 1.75 11.3758H2.625V13.1253H1.75C1.26875 13.1253 0.875 12.7316 0.875 12.2505ZM5.96751 12.7185C5.80563 12.9722 5.53001 13.1253 5.22813 13.1253H3.5V11.3758H4.32688C4.60688 11.3758 4.86938 11.2402 5.03125 11.0172L6.25187 9.3552L7.53374 10.2562L5.97189 12.7185H5.96751ZM13.055 1.54827L9.11751 7.75445L8.03687 6.91472L12.3331 1.05404C12.4163 0.940329 12.5431 0.87473 12.6875 0.87473C12.9281 0.87473 13.125 1.07154 13.125 1.31209C13.125 1.39519 13.1031 1.47829 13.0594 1.5439L13.055 1.54827Z" fill="#0D6EFD"/>
</svg>
