<svg width="14" height="14" viewBox="0 0 14 14" fill="none" xmlns="http://www.w3.org/2000/svg">
<path d="M7 0C6.18625 0 5.4075 0.14875 4.68125 0.4025C4.68125 0.4025 4.67688 0.4025 4.6725 0.4025C3.35563 0.86625 2.22688 1.715 1.40438 2.80875C1.40438 2.80875 1.40438 2.80875 1.4 2.81312C0.525 3.98563 0 5.43375 0 7C0 10.8587 3.14125 14 7 14C10.8587 14 14 10.8587 14 7C14 3.14125 10.8587 0 7 0ZM13.0813 6.2825L12.2019 5.32438L12.4425 4.20437C12.7706 4.83875 12.9894 5.53875 13.0769 6.2825H13.0813ZM12.2719 10.1062L10.0931 10.535L9.24875 9.53312L10.2812 6.64562L11.6244 5.985L13.0988 7.59063C13.0113 8.50063 12.7181 9.35375 12.2719 10.1019V10.1062ZM3.7625 11.4362L4.06437 12.3725C3.57437 12.1013 3.12375 11.7688 2.73 11.3794L3.76687 11.4362H3.7625ZM3.89812 10.5656L1.95125 10.4563C1.37813 9.625 1.00625 8.64937 0.905625 7.59063L2.38437 5.98063L3.73625 6.64125L4.75562 9.53312L3.89812 10.5656ZM1.56625 4.18687L1.81125 5.32L0.923125 6.28687C1.01063 5.53875 1.23375 4.83 1.56625 4.18687ZM5.56063 9.1875L4.61125 6.4925L7.00875 4.74688L9.40625 6.4925L8.44375 9.1875H5.56063ZM11.7731 3.17188L11.3444 5.15375L9.97062 5.8275L7.44625 3.98562V2.27938L9.24437 1.3125C10.2419 1.70625 11.1081 2.35375 11.7731 3.17625V3.17188ZM8.02812 0.97125L7.00875 1.51813L5.98937 0.966875C6.3175 0.91 6.65438 0.875 7 0.875C7.34562 0.875 7.69125 0.91 8.02812 0.966875V0.97125ZM4.77312 1.30375L6.57125 2.275V3.98562L4.04688 5.8275L2.66875 5.15375L2.24 3.16313C2.905 2.34063 3.77562 1.6975 4.77312 1.30813V1.30375ZM5.13188 12.8319L4.58063 11.1169L5.45563 10.0625H8.54875L9.41063 11.0819L8.56187 12.915C8.06312 13.0463 7.5425 13.125 7 13.125C6.34812 13.125 5.71813 13.02 5.1275 12.8319H5.13188ZM9.73 12.4775L10.2287 11.4056L11.4931 11.1562C10.9944 11.6987 10.3994 12.145 9.73438 12.4775H9.73Z" fill="#0D6EFD"/>
</svg>
