<svg width="14" height="14" viewBox="0 0 14 14" fill="none" xmlns="http://www.w3.org/2000/svg">
<path d="M7.51335 12.1683H3.97252C1.90169 12.1683 1.16669 10.7158 1.16669 9.3625V4.6375C1.16669 2.61916 1.95419 1.83167 3.97252 1.83167H7.51335C9.53169 1.83167 10.3192 2.61916 10.3192 4.6375V9.3625C10.3192 11.3808 9.53169 12.1683 7.51335 12.1683ZM3.97252 2.71833C2.45002 2.71833 2.05335 3.115 2.05335 4.6375V9.3625C2.05335 10.08 2.30419 11.2817 3.97252 11.2817H7.51335C9.03585 11.2817 9.43252 10.885 9.43252 9.3625V4.6375C9.43252 3.115 9.03585 2.71833 7.51335 2.71833H3.97252Z" fill="#0D6EFD"/>
<path d="M12.1216 10.5642C11.8708 10.5642 11.55 10.4825 11.1825 10.2258L9.62496 9.13501C9.50829 9.05334 9.43829 8.91917 9.43829 8.77334V5.22667C9.43829 5.08084 9.50829 4.94667 9.62496 4.86501L11.1825 3.77417C11.8766 3.29001 12.3841 3.43001 12.6233 3.55251C12.8625 3.68084 13.2708 4.01334 13.2708 4.85917V9.13501C13.2708 9.98084 12.8625 10.3192 12.6233 10.4417C12.5125 10.5058 12.3375 10.5642 12.1216 10.5642ZM10.3191 8.54001L11.69 9.49668C11.9525 9.67751 12.1391 9.69501 12.215 9.65417C12.2966 9.61334 12.3841 9.45001 12.3841 9.13501V4.86501C12.3841 4.54417 12.2908 4.38667 12.215 4.34584C12.1391 4.30501 11.9525 4.32251 11.69 4.50334L10.3191 5.46001V8.54001Z" fill="#0D6EFD"/>
<path d="M6.70831 6.85417C5.98498 6.85417 5.39581 6.26501 5.39581 5.54167C5.39581 4.81834 5.98498 4.22917 6.70831 4.22917C7.43165 4.22917 8.02081 4.81834 8.02081 5.54167C8.02081 6.26501 7.43165 6.85417 6.70831 6.85417ZM6.70831 5.10417C6.46915 5.10417 6.27081 5.30251 6.27081 5.54167C6.27081 5.78084 6.46915 5.97917 6.70831 5.97917C6.94748 5.97917 7.14581 5.78084 7.14581 5.54167C7.14581 5.30251 6.94748 5.10417 6.70831 5.10417Z" fill="#0D6EFD"/>
</svg>
