<svg width="14" height="14" viewBox="0 0 14 14" fill="none" xmlns="http://www.w3.org/2000/svg">
<path d="M7 0C3.14125 0 0 3.14125 0 7C0 10.8587 3.14125 14 7 14C10.8587 14 14 10.8587 14 7C14 3.14125 10.8587 0 7 0ZM12.1494 3.70125C10.4738 2.97062 7.74375 2.33625 4.585 3.675C4.25687 2.975 4.07313 2.28813 3.98563 1.68C4.87813 1.1725 5.90625 0.879375 7 0.879375C9.16125 0.879375 11.06 2.00813 12.1494 3.70563V3.70125ZM6.44437 13.0988C5.84937 13.0463 5.285 12.9062 4.75125 12.6919C5.84938 11.7425 7.20125 10.0231 7.4025 7.2975C8.31687 6.85125 9.1875 6.62813 9.9925 6.5625C9.58125 9.80437 7.8925 11.8913 6.44437 13.0988ZM7.04375 6.49688C6.12938 5.87563 5.47312 5.17125 5.00937 4.445C8.58812 2.975 11.5413 4.27 12.7794 5.005C12.9019 5.355 12.9894 5.7225 13.0463 6.09875C11.6638 5.63062 9.485 5.31562 7.04375 6.50125V6.49688ZM3.185 2.21813C3.49562 3.7975 4.37063 5.72687 6.53625 7.20562C6.45313 8.37813 6.13375 9.34062 5.70938 10.1194C3.14563 8.05 2.20062 5.50375 1.88562 3.63563C2.24 3.0975 2.68187 2.61625 3.185 2.21813ZM0.875 7C0.875 6.25625 1.015 5.54313 1.26 4.8825C1.76313 6.76375 2.87438 9.00813 5.2325 10.8763C4.78188 11.4888 4.30062 11.9481 3.88937 12.2719C2.08687 11.2044 0.875 9.24438 0.875 7.00437V7ZM7.76125 13.0725C9.14375 11.69 10.5262 9.58125 10.8763 6.55375C11.7381 6.60187 12.495 6.80312 13.1206 7.05687C13.0944 10.15 10.7625 12.7006 7.76125 13.0769V13.0725Z" fill="#0D6EFD"/>
</svg>
